<?xml version="1.0" standalone="no"?>
<!DOCTYPE svg PUBLIC "-//W3C//DTD SVG 20010904//EN"
 "http://www.w3.org/TR/2001/REC-SVG-20010904/DTD/svg10.dtd">
<svg version="1.0" xmlns="http://www.w3.org/2000/svg"
 width="300.000000pt" height="300.000000pt" viewBox="0 0 300.000000 300.000000"
 preserveAspectRatio="xMidYMid meet">
<metadata>
Created by potrace 1.10, written by Peter Selinger 2001-2011
</metadata>
<g transform="translate(0.000000,300.000000) scale(0.100000,-0.100000)"
fill="#c52121" stroke="none">
<path d="M1279 2764 c-461 -83 -846 -415 -993 -854 -108 -322 -84 -675 65
-972 298 -594 946 -857 1580 -641 558 190 912 765 839 1363 -35 286 -159 540
-364 746 -199 199 -438 321 -716 364 -91 14 -320 11 -411 -6z m110 -347 c18
-23 25 -75 11 -92 -10 -12 -9 -20 4 -40 19 -29 20 -35 5 -35 -6 0 -22 14 -36
30 -30 37 -46 30 -37 -16 5 -27 3 -34 -10 -34 -16 0 -18 4 -40 113 -15 74 -15
73 39 80 17 2 35 5 41 6 6 0 17 -5 23 -12z m186 -8 c6 -6 5 -20 -2 -39 -7 -18
-7 -32 -2 -36 5 -3 9 -18 9 -34 0 -36 -27 -52 -78 -48 l-37 3 -3 74 c-4 101
-2 104 55 95 27 -3 52 -10 58 -15z m175 -22 c0 -16 -5 -18 -32 -12 -18 4 -37
8 -43 9 -5 0 -11 -9 -13 -21 -2 -17 3 -23 28 -28 40 -9 33 -31 -8 -27 -23 3
-34 -1 -38 -13 -8 -20 11 -35 43 -35 23 0 38 -14 29 -29 -8 -12 -97 10 -103
26 -4 11 23 145 33 164 2 3 26 1 54 -5 39 -8 50 -14 50 -29z m-527 -91 c55
-75 58 -88 18 -80 -23 5 -30 2 -36 -15 -17 -55 -49 14 -56 124 -4 55 19 46 74
-29z m617 55 c0 -5 -11 -34 -25 -65 -14 -31 -25 -59 -25 -61 0 -3 16 -13 35
-22 23 -12 32 -22 26 -31 -6 -10 -18 -8 -54 10 -25 13 -46 29 -47 35 0 23 64
143 77 143 7 0 13 -4 13 -9z m-760 -90 c0 -10 11 -26 25 -35 38 -25 34 -65
-10 -95 -41 -28 -46 -25 -101 55 -42 60 -40 67 20 98 34 17 66 6 66 -23z m883
-33 c-16 -24 -32 -49 -37 -56 -4 -7 5 -23 24 -41 20 -18 28 -31 21 -36 -10 -5
-38 9 -95 47 -5 4 13 36 44 77 33 44 58 67 63 62 6 -6 -2 -26 -20 -53z m407
-580 c0 -4 -21 -8 -47 -10 -66 -4 -70 -28 -5 -28 48 0 50 -1 54 -30 3 -16 0
-34 -6 -40 -15 -15 -116 -13 -116 3 0 9 15 13 48 13 35 -1 47 3 47 14 0 11
-13 15 -50 16 -44 1 -50 3 -53 23 -7 44 3 51 68 49 33 -2 60 -6 60 -10z m-804
-14 c139 -66 90 -284 -63 -284 -57 0 -96 21 -128 67 -85 126 53 282 191 217z
m624 -22 c0 -21 5 -43 12 -50 18 -18 -9 -45 -32 -32 -10 6 -35 10 -54 10 -20
0 -36 5 -36 10 0 16 81 100 96 100 10 0 14 -12 14 -38z m-1542 9 c8 -5 12 -21
10 -37 -3 -26 -7 -29 -45 -32 -29 -2 -43 -8 -43 -18 0 -10 12 -14 45 -14 25 0
45 -4 45 -10 0 -6 -27 -10 -61 -10 l-60 0 3 33 c3 29 7 32 38 35 55 4 64 10
50 27 -14 17 -56 20 -65 5 -3 -5 -10 -10 -16 -10 -14 0 -11 28 4 33 20 9 81 7
95 -2z m147 -61 l0 -55 -45 0 c-45 0 -45 0 -50 40 -9 68 -4 76 49 73 l46 -3 0
-55z m178 3 c7 -64 -1 -80 -31 -64 -11 6 -32 11 -46 11 -19 0 -26 5 -26 18 0
29 52 91 76 92 18 0 22 -7 27 -57z m-123 -74 c0 -5 -7 -9 -15 -9 -15 0 -20 12
-9 23 8 8 24 -1 24 -14z m1432 -11 c9 -7 18 -32 21 -56 7 -57 -9 -72 -79 -72
l-54 0 0 64 0 65 38 4 c20 2 42 4 48 5 5 1 17 -4 26 -10z m-252 -56 l5 -47 49
-1 c78 -1 71 -24 -7 -24 -64 0 -65 0 -71 31 -8 41 -8 84 1 92 11 12 17 -2 23
-51z m450 45 c0 -9 -16 -13 -52 -12 -32 0 -53 -5 -55 -12 -3 -9 9 -13 44 -13
52 0 73 -12 73 -42 0 -25 -34 -39 -88 -36 -32 2 -48 8 -50 18 -2 12 8 14 53
12 35 -3 55 0 55 7 0 6 -20 11 -48 11 -52 0 -72 12 -72 45 0 32 7 35 77 35 45
0 63 -4 63 -13z m-1802 -47 c-10 -15 -10 -27 0 -53 7 -18 12 -39 12 -45 0 -20
-22 -13 -27 8 -3 11 -9 20 -13 20 -4 0 -10 -9 -13 -20 -3 -11 -10 -20 -16 -20
-7 0 -11 25 -11 65 0 59 11 84 23 53 3 -10 9 -9 22 4 23 22 38 13 23 -12z
m130 11 c3 -10 -2 -12 -21 -7 -19 4 -29 2 -36 -12 -14 -26 -2 -72 18 -72 25 0
33 11 19 27 -6 7 -8 16 -4 20 10 11 24 -10 28 -41 3 -28 1 -30 -37 -30 l-40
-1 -3 55 c-3 43 0 57 15 68 22 16 55 12 61 -7z m124 4 c-1 -5 -12 -10 -24 -10
-32 0 -34 -23 -1 -27 25 -3 28 -7 28 -38 0 -33 -2 -35 -37 -38 -27 -2 -38 1
-38 11 0 9 9 12 30 9 22 -3 30 0 30 11 0 10 -11 17 -32 19 -28 3 -34 7 -36 32
-2 16 2 33 10 38 17 11 74 6 70 -7z m1066 -557 c3 -13 -3 -18 -21 -18 -33 0
-52 -23 -33 -40 12 -9 20 -9 38 4 33 24 54 20 78 -15 l22 -30 -22 -24 c-29
-31 -57 -40 -75 -25 -22 18 -18 30 9 30 13 0 29 7 36 15 19 23 -14 31 -45 11
-28 -19 -48 -13 -69 19 -23 34 -20 50 12 74 32 24 65 24 70 -1z m-894 -19 c20
-12 36 -23 36 -26 0 -2 -20 -36 -45 -75 l-46 -70 -32 21 c-18 11 -33 29 -35
40 -3 21 63 131 78 131 5 0 25 -9 44 -21z m776 -95 c25 -56 32 -65 50 -59 14
4 20 2 20 -8 0 -19 -77 -54 -91 -40 -7 7 -5 14 5 22 12 10 11 19 -11 67 -22
48 -25 84 -8 84 2 0 18 -30 35 -66z m-691 6 c-4 -53 7 -60 25 -16 15 36 36 49
36 21 0 -11 -46 -138 -56 -153 -6 -9 -73 20 -78 34 -7 18 7 56 27 72 8 7 18
28 21 47 9 48 28 44 25 -5z m596 -37 c13 -109 12 -118 -10 -121 -16 -2 -28 12
-58 68 -20 38 -37 74 -37 80 0 19 29 10 35 -11 7 -22 42 -22 37 1 -4 18 5 40
17 40 5 0 13 -26 16 -57z m-470 8 c0 -34 22 -38 36 -7 15 32 44 36 34 5 -41
-127 -53 -154 -70 -154 -24 0 -33 30 -34 118 -1 60 1 68 16 65 11 -2 18 -12
18 -27z m345 -69 c8 -50 9 -77 2 -84 -7 -7 -14 -3 -21 11 -15 26 -31 27 -31 2
0 -25 -20 -38 -30 -21 -11 17 -23 160 -15 168 4 4 15 -3 25 -15 22 -28 30 -29
30 -5 0 22 11 35 20 25 4 -5 13 -41 20 -81z m-140 -12 l0 -90 -38 0 c-52 0
-62 14 -62 86 0 87 4 94 56 94 l44 0 0 -90z"/>
<path d="M1320 2365 c0 -22 4 -26 23 -23 14 2 22 10 22 23 0 13 -8 21 -22 23
-19 3 -23 -1 -23 -23z"/>
<path d="M1492 2383 c2 -11 14 -19 31 -21 23 -3 28 0 25 15 -2 11 -14 19 -31
21 -23 3 -28 0 -25 -15z"/>
<path d="M1496 2315 c-9 -24 1 -35 30 -35 21 0 25 4 22 23 -4 27 -42 36 -52
12z"/>
<path d="M1186 2265 c4 -8 10 -15 15 -15 5 0 9 7 9 15 0 8 -7 15 -15 15 -9 0
-12 -6 -9 -15z"/>
<path d="M1012 2258 c-27 -27 -6 -56 28 -38 24 13 26 35 4 44 -20 8 -18 8 -32
-6z"/>
<path d="M1060 2195 c-13 -16 -7 -45 9 -45 5 0 17 7 26 16 12 12 13 19 4 30
-15 18 -24 18 -39 -1z"/>
<path d="M2143 1593 c-21 -8 -15 -33 7 -33 13 0 20 7 20 20 0 20 -5 23 -27 13z"/>
<path d="M722 1563 c3 -33 6 -38 28 -38 22 0 25 4 25 35 0 31 -3 35 -28 38
-27 3 -28 2 -25 -35z"/>
<path d="M912 1558 c-18 -18 -15 -28 8 -28 13 0 20 7 20 20 0 23 -10 26 -28 8z"/>
<path d="M2194 1449 c-9 -15 16 -30 41 -24 11 2 26 5 33 5 6 0 12 7 12 15 0
18 -75 21 -86 4z"/>
<path d="M2200 1396 c0 -22 17 -28 50 -21 46 10 38 35 -10 35 -28 0 -40 -4
-40 -14z"/>
<path d="M1043 805 c-26 -40 -29 -65 -9 -65 17 0 68 79 60 92 -11 17 -30 7
-51 -27z"/>
<path d="M1142 683 c5 -26 38 -29 38 -4 0 15 -6 21 -21 21 -14 0 -19 -5 -17
-17z"/>
<path d="M1745 699 c-4 -6 0 -18 9 -27 15 -15 16 -15 16 5 0 25 -15 38 -25 22z"/>
<path d="M1310 665 c0 -14 4 -25 9 -25 12 0 23 29 15 41 -10 18 -24 9 -24 -16z"/>
<path d="M1454 696 c-10 -39 -1 -81 19 -84 14 -3 17 5 17 52 0 43 -4 56 -15
56 -8 0 -17 -11 -21 -24z"/>
</g>
</svg>
